<svg xmlns="http://www.w3.org/2000/svg" version="1.1" xmlns:xlink="http://www.w3.org/1999/xlink" width="123.01" height="139.53"><svg xmlns="http://www.w3.org/2000/svg" version="1.1" xmlns:xlink="http://www.w3.org/1999/xlink" width="123.01" height="139.53"><svg id="Layer_2" data-name="Layer 2" xmlns="http://www.w3.org/2000/svg" viewBox="0 0 123.01 139.53">
  <defs>
    <style>
      .cls-1 {
        fill: #49b39a;
      }
    </style>
  </defs>
  <g id="Layer_1-2" data-name="Layer 1">
    <path class="cls-1" d="M55.33,114.89l.05-13.76-20.25,15.55c-7.67,3.07-16.02,2.97-23.58-.29-5.39-2.7-9.2-7.06-10.77-12.9-1.52-7.13-.86-14.47,2.29-20.99,2.43-4.56,5.76-8.2,10.46-10.29,5.61-2.64,11.39-4.26,17.47-5.64,8.07-1.88,15.85-3.13,24.38-4.35.53-4.48-.24-8.83-1.7-13.08-1.34-3.57-3.55-6.52-6.8-8.51-4.06-2.65-8.7-3.62-13.63-3.59-5.56-.13-10.95.99-15.43,4.13l-5.11,11.49c-1.78.37-3.5-.09-4.84-1.34l.05-11.76c4.25-3.28,8.67-5.83,13.5-8.06,7.79-3.51,15.99-4.9,24.56-3.85,7.74.7,14.62,4.12,19.76,9.8,2.16,2.63,3.64,5.53,4.58,8.79,1.15,3.94,1.21,7.64,1.44,12.28,2.74-.28,4.42-1.58,6.47-2.87.29-5.61-.11-10.97.52-16.56.53-6.36,2.91-12.05,7.04-16.91,4.92-6.07,10.2-11.46,15.91-16.77,2.15-1.74,4.29-3.28,6.84-4.37,4.74-1.51,9.64-1.35,14.4.38l.08,14.72c-.69,1.19-1.93,1.43-3.09.79-5.14-4.12-11.94-5.15-18.11-2.77-3.16,1.15-5.37,3.58-6.39,6.79-.91,2.82-1.11,5.7-1.33,8.72l.02,26.04c8.1.4,15.72.19,23.71-.3,1.19-.03,1.58.84,1.49,1.95l-1.89,8.04-23.5.08.07,43.18,1.08,19.78c.05,2.51,1.52,4.55,4.07,4.74,3.8.54,7.39.58,11.25.67.85.14,1.48.17,2.11.45.4.44.47,1.32.44,2.39.08.88,0,1.5-.26,2.06-.36.62-1.27.65-2.35.82-12.57-.78-24.77-1.11-37.38-.62-3.47.15-6.62.71-9.89.25-.32-1.73-.32-3.29-.01-4.99l9.87-.99c1.81-.07,3.1-1.04,3.89-2.65.8-4.45,1.09-8.77.87-13.47-4.61-.75-8.61-.69-12.97-.25l-6.79.21c-1.47.12-2.55-.68-2.59-2.14ZM78.13,110.98l.21-8.02-.08-37.22c-2.58-.36-4.64-.33-7.01.53l-.17,38.96c.18,2.01.42,3.83,1.84,4.92,1.35.76,3.15,1.49,5.22.83ZM26.48,107.12c6.4,1.24,12.44-.32,17.65-3.61,4.44-2.83,8.11-6.28,11.51-10.42l-.02-25.25c-9.3,1.56-18.16,3.25-26.91,6.42-5.76,1.92-10.07,5.99-11.43,11.92-1.03,3.94-1.15,8.03-.22,12.02,1.01,4.66,4.43,7.97,9.42,8.93Z"></path>
  </g>
</svg></svg><style>@media (prefers-color-scheme: light) { :root { filter: none; } }
@media (prefers-color-scheme: dark) { :root { filter: none; } }
</style></svg>