<svg xmlns="http://www.w3.org/2000/svg" width="242.957" height="290" viewBox="0 0 242.957 290">
  <g id="icon-atom" transform="translate(-0.021 -0.274)" opacity="0.4">
    <path id="Path_16" data-name="Path 16" d="M50.838,90.659A18.452,18.452,0,0,0,32.124,76.225a14.372,14.372,0,0,0-10.378,3.1,19.4,19.4,0,0,0-3.735,3.694,16.883,16.883,0,0,0-3.818,8.476c-1.7,8.43,1.693,17.8,10.232,21.988C38.431,120.352,54.5,106.176,50.838,90.659ZM31.189,111a1.276,1.276,0,0,1-.473-1.886c2.324-2.5,5.548-3.983,7.58-6.744,2.48-3.366,1.853-7.5,3.6-11.045.839-1.7,3.314-2.446,4.511-.574C52.218,99.815,41.035,115.425,31.189,111Z" fill="#fff"/>
    <path id="Path_17" data-name="Path 17" d="M189.487,253.479c-.044-.02-.077-.049-.119-.068-7.026,20.624-16.166,32.231-26.667,33.678-12.442,1.706-27.7-10.042-40.815-31.47-6.618-10.816-10.816-25.338-15.26-40.713-.968-3.349-1.952-6.758-2.985-10.211-4.12-13.786-9.195-32.248-11.888-52.808-.612-4.661-1.3-9.316-1.96-13.818C87.7,123.84,85.721,110.4,86.063,97.648c.531-19.707,4.783-37.229,9.3-53.228,7.227-25.565,16.775-39.342,28.378-40.951C136.6,1.7,152.764,13.409,164.932,33.3c6.471,10.577,10.739,24.944,15.256,40.156,1.083,3.643,2.183,7.349,3.339,11.089,4.885,15.809,7.412,33.434,10.087,52.093l.167,1.168c2.545,17.74,5.006,36.518,4.707,53.982a264.423,264.423,0,0,1-2.834,35.993,13.739,13.739,0,0,1,2.993.456,265.336,265.336,0,0,0,2.847-36.4c.3-17.687-2.175-36.6-4.738-54.466l-.167-1.166c-2.693-18.782-5.235-36.521-10.193-52.558-1.151-3.73-2.25-7.426-3.328-11.057-4.575-15.408-8.9-29.959-15.575-40.871C154.507,10.491,137.594-1.476,123.334.482c-12.9,1.785-23.279,16.291-30.861,43.113C87.9,59.783,83.6,77.525,83.062,97.563c-.35,13.014,1.646,26.58,3.759,40.944.66,4.49,1.344,9.134,1.953,13.771,2.724,20.771,7.837,39.385,11.99,53.281,1.03,3.444,2.013,6.846,2.978,10.186,4.5,15.575,8.753,30.289,15.584,41.451,12.992,21.227,27.711,33.077,40.866,33.077a21.248,21.248,0,0,0,2.924-.2c11.866-1.635,21.637-13.664,29.119-35.735a12.182,12.182,0,0,1-2.744-.859Z" fill="#fff"/>
    <path id="Path_18" data-name="Path 18" d="M207.755,237.454a12.8,12.8,0,0,0-13.237-9.678,10.245,10.245,0,0,0-7.239,2.264,13.583,13.583,0,0,0-2.579,2.587,11.573,11.573,0,0,0-2.59,5.879,13.45,13.45,0,0,0,7.379,14.971c9.863,4.543,20.965-5.408,18.267-16.024ZM194.2,251.691a.866.866,0,0,1-.349-1.29c1.6-1.748,3.843-2.809,5.24-4.734,1.7-2.345,1.226-5.177,2.418-7.639a1.833,1.833,0,0,1,3.152-.453c4.146,6.152-3.533,17.026-10.461,14.115Z" fill="#fff"/>
    <path id="Path_19" data-name="Path 19" d="M228.818,104.806c-3.082,4.013-5.6,8.5-8.655,12.55-3.049,4.036-6.593,7.675-9.339,11.955a.381.381,0,0,0,.527.534c4.32-2.749,7.632-6.876,10.707-11.009,3.02-4.054,6.119-8.525,7.886-13.366A.661.661,0,0,0,228.818,104.806Z" fill="#fff"/>
    <path id="Path_20" data-name="Path 20" d="M108.163,249.076c-1.258-5.863-4.2-11.247-6.376-16.8-2.192-5.6-3.868-11.408-6.922-16.591-.18-.307-.591-.051-.571.244.418,6.142,2.712,11.781,5.045,17.411,2.286,5.52,4.553,11.395,8.515,15.871.106.119.349.058.309-.132Z" fill="#fff"/>
    <path id="Path_21" data-name="Path 21" d="M98.255,243.94c.465-2.291-1.153-4.621-1.954-6.723-1.082-2.836-2.28-5.541-3.489-8.321a.383.383,0,0,0-.732.2,25.121,25.121,0,0,0,1.8,9.165c.854,2.077,1.805,5.06,3.982,5.906A.288.288,0,0,0,98.255,243.94Z" fill="#fff"/>
    <path id="Path_22" data-name="Path 22" d="M77.948,72.218c-3.13-3.755-8.111-5.792-12.39-7.661A43.043,43.043,0,0,0,50,60.584c-.243-.011-.382.356-.119.464,4.888,2.035,9.919,3.657,14.8,5.73,4.335,1.842,8.434,4.823,12.966,5.991C77.925,72.841,78.131,72.437,77.948,72.218Z" fill="#fff"/>
    <path id="Path_23" data-name="Path 23" d="M73.79,63.389A15.131,15.131,0,0,0,62.5,59.211c-.322.02-.353.509-.078.638C66,61.5,69.668,62.809,73.37,64.156A.444.444,0,0,0,73.79,63.389Z" fill="#fff"/>
    <path id="Path_24" data-name="Path 24" d="M10.3,57.7a55.4,55.4,0,0,1,12.024,1.684c11.1,2.585,26.562,8.169,44.715,16.148,4.475,1.967,9.162,3.955,14.009,6.012,14.027,5.953,29.743,12.639,45.463,21.013a29.736,29.736,0,0,1,5.63-.375c-17.235-9.527-34.582-16.9-49.92-23.413-4.836-2.051-9.51-4.036-13.973-6C40.4,60.535,6.085,48.158.7,58.682-2.065,64.09,3.775,74.454,15.63,86.739a17.212,17.212,0,0,1,1.578-2.686C6.333,72.687,1.454,63.817,3.374,60.058,4.178,58.488,6.581,57.7,10.3,57.7Z" fill="#fff"/>
    <path id="Path_25" data-name="Path 25" d="M94.07,139.108c-16.088-9.194-31.922-18.7-45.127-28.161q-1.513-1.084-2.978-2.162a20.8,20.8,0,0,1-2.223,2.1c1.136.839,2.283,1.677,3.453,2.515,13.623,9.761,29.977,19.542,46.528,28.978C93.8,141.283,93.915,140.2,94.07,139.108Z" fill="#fff"/>
    <path id="Path_26" data-name="Path 26" d="M192.319,144.258c-5.285-3.638-10.7-7.715-16.355-12.017.157.538.34,1.055.478,1.608.253,1.009.46,2.015.638,3.019,4.637,3.506,9.116,6.832,13.537,9.874,13.2,9.079,53.352,36.711,49.059,45.455-3.1,6.343-28.319,3.663-65.155-11.786q-4.858-2.038-10.08-4.4-1.075,1.084-2.217,2.1c-.051.045-.106.086-.158.131q5.864,2.671,11.3,4.955c23.717,9.946,43.674,15.2,56.066,15.2,6.815,0,11.344-1.592,12.948-4.867,3.865-7.874-10.638-22.148-50.056-49.271Z" fill="#fff"/>
    <path id="Path_27" data-name="Path 27" d="M176.443,133.848c-5.327-21.256-23.845-32.176-42.223-31.544-7.489-.731-15.451,1.308-23.113,7.153a43.447,43.447,0,0,0-8.273,8.292,37.613,37.613,0,0,0-8.384,18.935c-3.66,18.783,4.075,39.545,23.325,48.665,15.771,7.475,32.65,3.209,44.45-7.244s18.523-27.068,14.219-44.257Zm-43.534,45.831c-1.425-.615-2.283-2.9-1.1-4.181,5.162-5.619,12.356-9.021,16.85-15.211,5.481-7.548,3.973-16.722,7.8-24.664,1.834-3.81,7.352-5.537,10.083-1.412,13.274,19.964-11.413,55.038-33.628,45.471Z" fill="#fff"/>
    <path id="Path_28" data-name="Path 28" d="M233.814,67.04c-8.051-12.112-37.228-9.063-72.6,7.586A445.086,445.086,0,0,0,96.9,112.212c-16.993,11.9-31.026,26.436-43.408,39.267-4.049,4.2-7.875,8.159-11.652,11.887C9.815,194.941-2.252,215.832,4.946,227.235c3.095,4.909,9.091,6.82,16.566,6.82,16.33,0,39.7-9.136,55.179-16.124,15.224-6.868,34.551-16.148,54.564-28.963a38.036,38.036,0,0,1-4.615-.636,425.132,425.132,0,0,1-51.181,26.85C38.576,231.831,13.8,235.636,7.49,225.624c-4.288-6.793-1.445-22.736,36.46-60.108,3.806-3.753,7.642-7.731,11.706-11.94,12.287-12.732,26.213-27.162,42.967-38.891a442.039,442.039,0,0,1,63.866-37.331c20.555-9.673,39.165-14.743,52.1-14.743,8.111,0,14,2,16.722,6.1,6.616,9.964-6.54,33.844-34.331,62.32q-9.5,9.726-19.574,18.748a43.178,43.178,0,0,1-.91,4.818q11.664-10.263,22.632-21.458c29.717-30.446,42.358-54.537,34.686-66.1Z" fill="#fff"/>
  </g>
</svg>
