<svg xmlns="http://www.w3.org/2000/svg" width="679.014" height="419.649" viewBox="0 0 679.014 419.649">
  <g id="icon-dna2" transform="translate(115.688 0)">
    <path id="Path_1" data-name="Path 1" d="M39.378,118.567c7.241-28.44,11.662-58.369,21.942-86,1.463,1.1,2.882,2.223,4.283,3.363C62.6,63.752,53.544,90.9,46.665,117.75q-5.923,22.931-12.121,45.785c-3.838,14.252-6.148,30.08-13.217,43.23-.753,1.407-3.8.657-3.716-.97.677-14.028,6.31-27.919,9.9-41.376Q33.572,141.529,39.378,118.567Z" fill="rgba(27,175,193,0.2)"/>
    <path id="Path_2" data-name="Path 2" d="M106.406,90.572a77.268,77.268,0,0,1,3.644,12.988c-3.109,10.8-6.71,21.479-9.816,32.155C93.67,158.278,88.887,182.236,79.293,203.8c-1.182,2.663-5.714,1.232-5.252-1.587,3.654-22.392,12.35-44.281,18.9-65.949C97.484,121.2,101.176,105.576,106.406,90.572Z" fill="rgba(27,175,193,0.2)"/>
    <g id="Group_1" data-name="Group 1" opacity="0.4">
      <path id="Path_3" data-name="Path 3" d="M529.4,280.86a94.374,94.374,0,0,0-20.444-11.426c-3.735-1.557-7.6-2.948-11.53-4.176s-8.081-2.1-12.159-2.932a191.983,191.983,0,0,0-46.392-3.395,284.6,284.6,0,0,0-46.221,7.194q-5.526,1.3-10.947,2.738c-3.654,1.016-7.3,2.107-10.906,3.207-7.217,2.207-14.324,4.524-21.352,6.866-11.3,3.786-22.989,8.173-35.056,12.479a322.859,322.859,0,0,1-37.143,11.622,181.778,181.778,0,0,1-18.916,3.4,124.123,124.123,0,0,1-19.311,1.245,100.585,100.585,0,0,1-19.414-2.183,116.393,116.393,0,0,1-19.883-5.8c-6.021-2.415-12.066-5.018-18-7.853-5.957-2.789-11.967-5.448-17.654-8.585-7.252-3.931-8.928-6.1,1.1-2.514a54.028,54.028,0,0,0,17.7,2.94,84.368,84.368,0,0,0,18.129-1.377c12.059-2.094,23.942-6.273,33.618-9.609,28.125-9.342,55.228-22.662,83.4-32.5,7.079-2.528,14.3-5,21.7-7.284,7.387-2.271,15.014-4.47,22.633-6.011a219.623,219.623,0,0,1,48.608-5.026,157.464,157.464,0,0,1,48.246,9.628,180.089,180.089,0,0,1,23.159,11,230.774,230.774,0,0,1,23.114,14.618c10.8,8.128,26.962,18.548,34.821,29.283,3.117,4.506,1.2,3.657-1.862,1.383-3.107-2.224-7.5-5.727-9.05-6.918Z" fill="rgba(27,175,193,0.2)"/>
    </g>
    <path id="Path_4" data-name="Path 4" d="M486.542,252.73c-11.1,25.979-25.753,49.956-39.3,74.408L426.07,364.844c-6.359,11.3-10.85,26.771-21.843,34.052a1.3,1.3,0,0,1-1.821-1.18c.923-11.5,9.265-20.512,14.587-29.957l22.183-40.023c14.2-25.834,27.024-52.926,43.042-77.638C483.322,248.4,487.365,250.8,486.542,252.73Z" fill="rgba(27,175,193,0.2)"/>
    <path id="Path_5" data-name="Path 5" d="M431.105,241.836c-8.156,18.469-20.892,34.72-31.089,51.99-11.1,18.747-21.68,37.79-32.128,56.906-1.616,2.948-6.815-.685-5.268-3.627q14.627-27.777,30.565-54.823c10.472-17.7,20.1-37.372,34.22-52.5,1.088-1.164,4.48.286,3.7,2.051Z" fill="rgba(27,175,193,0.2)"/>
    <path id="Path_6" data-name="Path 6" d="M323.411,199.8c-5.743,16.531-15.621,31.312-24.239,46.315-7.5,13.1-13.823,29.822-25.99,39.463a.942.942,0,0,1-1.431-.808c2.659-15.219,14.14-28.73,21.7-41.888,8.612-15.031,15.964-31.161,26.722-44.942,1.126-1.444,3.816.168,3.233,1.854Z" fill="rgba(27,175,193,0.2)"/>
    <path id="Path_7" data-name="Path 7" d="M293.636,149.884c-8.532,27.051-21.713,52.492-33.078,78.293L243.3,266.966c-5.034,11.272-8.953,23.818-16.609,33.573-.894,1.142-3.139-.213-2.9-1.539,2.242-12.387,9-23.651,13.983-34.963l16.965-38.87c11.233-25.785,20.733-52.8,34.339-77.477,1.166-2.11,5.244,0,4.553,2.2Z" fill="rgba(27,175,193,0.2)"/>
    <path id="Path_8" data-name="Path 8" d="M29.711,218.578c-6.216-1.156-12.472-2.425-18.72-3.842C4.729,213.375-1.467,211.6-7.75,210.252c-6.256-1.477-12.461-3.131-18.579-5.007q-4.587-1.405-9.1-2.977c-3.007-1.073-5.992-2.167-8.974-3.156-12.477-4.308-24.355-10.037-36.085-16.025-11.77-5.656-23.343-11.934-35-18.191-2.432-1.3,18.218.145,20.261.382,4.939.582,11.473.93,17.886,1.722,6.394.916,12.626,2.536,16.984,5.071,6.591,3.892,13.144,7.761,19.721,11.515s13.087,7.911,19.751,11.576c5.714,3.2,11.484,6.278,17.405,9.059a108.634,108.634,0,0,0,14.266,5.228c.807.253.229.132-2.637-.445-2.877-.522-7.986-1.775-16.423-2.888A161.12,161.12,0,0,1,11.3,210.144c6.494,1.674,12.925,3.587,19.135,5.78,7.94,2.8,9.848,4.613-.729,2.649Z" fill="rgba(27,175,193,0.2)"/>
    <g id="Group_2" data-name="Group 2" opacity="0.2">
      <path id="Path_9" data-name="Path 9" d="M29.711,218.578c-6.216-1.156-12.472-2.425-18.72-3.842C4.729,213.375-1.467,211.6-7.75,210.252c-6.256-1.477-12.461-3.131-18.579-5.007q-4.587-1.405-9.1-2.977c-3.007-1.073-5.992-2.167-8.974-3.156-12.477-4.308-24.355-10.037-36.085-16.025-11.77-5.656-23.343-11.934-35-18.191-2.432-1.3,18.218.145,20.261.382,4.939.582,11.473.93,17.886,1.722,6.394.916,12.626,2.536,16.984,5.071,6.591,3.892,13.144,7.761,19.721,11.515s13.087,7.911,19.751,11.576c5.714,3.2,11.484,6.278,17.405,9.059a108.634,108.634,0,0,0,14.266,5.228c.807.253.229.132-2.637-.445-2.877-.522-7.986-1.775-16.423-2.888A161.12,161.12,0,0,1,11.3,210.144c6.494,1.674,12.925,3.587,19.135,5.78,7.94,2.8,9.848,4.613-.729,2.649Z" fill="rgba(27,175,193,0.2)"/>
    </g>
    <path id="Path_10" data-name="Path 10" d="M397.119,395.644c-6.291-5.115-12.671-9.882-18.585-15.007-5.991-5.025-11.505-10.444-16.941-15.755a144.383,144.383,0,0,1-15.044-17.044,159.424,159.424,0,0,1-12.334-19.752A182.444,182.444,0,0,1,320.184,291.7c-3.522-12.371-6.321-24.591-8.78-36.911q-1.8-9.309-3.587-18.558c-1.168-6.22-2.337-12.482-3.724-18.556a333.451,333.451,0,0,0-10.138-37.051c-1.851-5.354-3.918-10.749-6.364-16.119a119.784,119.784,0,0,0-8.857-15.473,92.078,92.078,0,0,0-12.65-15.1c-3.935-3.729-10.1-7.542-11.865-8.663-.89-.55-.631-.533,1.568.453,2.176,1.04,6.313,3.015,13.212,6.313l-15.67-7.58c-7.088-3.314-13.749-6.744-13.295-7.774.437-1,7.972,1.752,15.489,4.8,7.435,3.22,14.776,6.895,15.141,7.046,14.739,7.09,28.463,13.923,39.893,23.023a119.491,119.491,0,0,1,15.831,14.468,96.43,96.43,0,0,1,6.7,8.267,88.081,88.081,0,0,1,5.633,9.4c12.091,23.271,16.209,46.922,19.561,70.22,1.933,12.8,3.552,25.534,5.576,38.169a361.084,361.084,0,0,0,7.4,38.415,193.775,193.775,0,0,0,5.824,18.744,142.759,142.759,0,0,0,7.8,18.674,120.081,120.081,0,0,0,10.963,17.607c2.194,2.74,7.119,8.027,9.562,10.768,2.432,2.762,2.3,3.1-5.881-3.689,1.873,1.563,22.263,17.688,20.806,19.423-1.406,1.671-22.69-15.925-23.211-16.37Z" fill="rgba(27,175,193,0.2)"/>
    <g id="Group_3" data-name="Group 3" opacity="0.2">
      <path id="Path_11" data-name="Path 11" d="M397.119,395.644c-6.291-5.115-12.671-9.882-18.585-15.007-5.991-5.025-11.505-10.444-16.941-15.755a144.383,144.383,0,0,1-15.044-17.044,159.424,159.424,0,0,1-12.334-19.752A182.444,182.444,0,0,1,320.184,291.7c-3.522-12.371-6.321-24.591-8.78-36.911q-1.8-9.309-3.587-18.558c-1.168-6.22-2.337-12.482-3.724-18.556a333.451,333.451,0,0,0-10.138-37.051c-1.851-5.354-3.918-10.749-6.364-16.119a119.784,119.784,0,0,0-8.857-15.473,92.078,92.078,0,0,0-12.65-15.1c-3.935-3.729-10.1-7.542-11.865-8.663-.89-.55-.631-.533,1.568.453,2.176,1.04,6.313,3.015,13.212,6.313l-15.67-7.58c-7.088-3.314-13.749-6.744-13.295-7.774.437-1,7.972,1.752,15.489,4.8,7.435,3.22,14.776,6.895,15.141,7.046,14.739,7.09,28.463,13.923,39.893,23.023a119.491,119.491,0,0,1,15.831,14.468,96.43,96.43,0,0,1,6.7,8.267,88.081,88.081,0,0,1,5.633,9.4c12.091,23.271,16.209,46.922,19.561,70.22,1.933,12.8,3.552,25.534,5.576,38.169a361.084,361.084,0,0,0,7.4,38.415,193.775,193.775,0,0,0,5.824,18.744,142.759,142.759,0,0,0,7.8,18.674,120.081,120.081,0,0,0,10.963,17.607c2.194,2.74,7.119,8.027,9.562,10.768,2.432,2.762,2.3,3.1-5.881-3.689,1.873,1.563,22.263,17.688,20.806,19.423-1.406,1.671-22.69-15.925-23.211-16.37Z" fill="rgba(27,175,193,0.2)"/>
    </g>
    <path id="Path_12" data-name="Path 12" d="M7.872,206.318a113.843,113.843,0,0,0,19.235-2.242,147.409,147.409,0,0,0,18.15-5.063A143.657,143.657,0,0,0,62.3,192.052a204.3,204.3,0,0,0,31.364-19.129c5.093-3.616,10.013-7.391,14.774-11.231-1.854,16.857-4.164,34.731-2.022,52.262-.385.127-.761.27-1.147.394a150.617,150.617,0,0,1-16.9,4.176q-4.3.8-8.658,1.329c-2.918.388-5.9.808-8.874,1.064A139.085,139.085,0,0,1,34.078,219.3c-12.647-1.819-25.265-5.332-37.483-9-2.567-.676-19.667-5.855-9.271-4.742q5.324.568,10.477.657c3.428.1,6.764.218,10.07.094Z" fill="rgba(27,175,193,0.2)"/>
    <path id="Path_13" data-name="Path 13" d="M290.081,141.56a82.231,82.231,0,0,0-38.648-6.809,95.037,95.037,0,0,0-33.823,10.393A183.858,183.858,0,0,0,189.02,163.8c-8.618,6.766-16.474,13.551-23.708,19.164,2.125-12.888,4.321-25.782,5.066-39a97.735,97.735,0,0,0-2.275-26.7c1.584-.73,3.15-1.479,4.8-2.145,11.473-4.621,23.678-6.31,36.546-5.639,12.755.935,26.048,4.518,39.947,9.781,7.233,2.627,14.3,5.861,21.327,9.159,7.02,3.32,13.94,6.85,20.593,10.685,8.345,4.823,10.366,7.41-1.225,2.457Z" fill="rgba(27,175,193,0.2)"/>
    <path id="Path_14" data-name="Path 14" d="M532.615,286.23c.626.5,1.236,1.011,1.854,1.515-10.423,23.136-27.65,43.176-41.971,63.507-16.183,22.886-32.608,45.623-49.978,67.536-2.135,2.687-6.839-1.525-4.834-4.266,16.045-21.891,32.333-43.588,47.9-65.878,14.792-21.108,27.129-45.378,44.254-64.723C530.761,284.692,531.679,285.47,532.615,286.23Z" fill="rgba(27,175,193,0.2)"/>
    <g id="Group_4" data-name="Group 4" opacity="0.4">
      <path id="Path_15" data-name="Path 15" d="M35.672,15A212.5,212.5,0,0,0,1.428,11.457c-11.586-.283-23.181.493-33.958.795-6.421.251-13.381-.7-20.385-1.743-7.02-.943-14.04-2.245-20.444-3.234C-78.9,6.421-88.4,6.079-93.039,3.686c-.464-.24-6.915-1.657-3.166-1.94Q-81.882.666-67.556.239C-58-.025-48.4-.211-38.875.468-19.78,1.589-.437,3.325,18.961,7.5c3.549.706,12.7,2.01,21.435,3.778a77.534,77.534,0,0,1,11.959,3.212c3.363,1.215,5.862,2.492,6.755,3.786.826,1.2-4.5.418-10.291-.717C43.054,16.337,36.69,15.275,35.667,15Z" fill="rgba(27,175,193,0.2)"/>
    </g>
    <path id="Path_16" data-name="Path 16" d="M222.585,159.908q-7.725,21.244-15.8,42.344c-9.568,25.149-17.867,51.731-30.039,75.857a55.346,55.346,0,0,1-4.629-5.945c-.084-.124-.148-.253-.229-.377,7.994-24.527,19.367-48.315,28.541-72.3,9.578-24.92,15.251-54.564,30.573-76.73.589-.844,2.524.118,2.451,1.064-1.01,12.735-6.637,24.406-10.869,36.084Z" fill="rgba(27,175,193,0.2)"/>
    <g id="Group_6" data-name="Group 6" opacity="0.4">
      <path id="Path_17" data-name="Path 17" d="M188.478,294.823c-3.906-1.754-7.757-3.767-11.776-5.464-3.992-1.755-7.97-3.582-11.883-5.508a184.763,184.763,0,0,1-22.35-12.91A88.609,88.609,0,0,1,123.7,255.032a68.949,68.949,0,0,1-12.569-21.113c-8.99-24.281-5.039-50.355-2.464-74.235,1.233-11.673,2.931-23.818,3.052-36.127.111-12.287-1.441-24.5-6.771-36.62A135.932,135.932,0,0,0,91.481,63.491a137.257,137.257,0,0,0-8.866-11.3c-3.2-3.565-6.6-7.028-10.18-10.353A142.666,142.666,0,0,0,47.227,23.187a105.286,105.286,0,0,0-12.52-6.222c-2.483-1.07-19.653-6.437-7.8-3.821C24.065,12.575-6.039,6.1-5.68,4.192c.478-2.447,32.635,5.042,33.44,5.163,5.09,1.126,10.159,2.28,15.184,3.492s9.932,2.778,14.825,4.255C67.531,20.137,77.061,23.47,86.2,27.28A131.606,131.606,0,0,1,99.5,33.7q6.457,3.492,12.54,7.413a131.684,131.684,0,0,1,22.4,17.9c12.842,13.333,22.293,27.256,28.309,41.406a99.079,99.079,0,0,1,7.633,43.548c-1.46,25.952-8.534,50.654-9.619,76.52-.48,11.568-.041,23.848,3.781,35.739a63.547,63.547,0,0,0,7.579,15.942,64.934,64.934,0,0,0,8.064,9.628c3.379,3.347,8.685,7.243,10.14,8.58.718.7.448.8-1.565.01-1.007-.4-2.448-1.016-4.419-1.9l-3.365-1.531-4.313-1.781c2.823,1.051,9.927,3.754,16.6,6.791s12.893,6.421,13.746,9.129c.769,2.479-16.936-5.518-18.526-6.265Z" fill="rgba(27,175,193,0.2)"/>
      <g id="Group_5" data-name="Group 5" opacity="0.2">
        <path id="Path_18" data-name="Path 18" d="M188.478,294.823c-3.906-1.754-7.757-3.767-11.776-5.464-3.992-1.755-7.97-3.582-11.883-5.508a184.763,184.763,0,0,1-22.35-12.91A88.609,88.609,0,0,1,123.7,255.032a68.949,68.949,0,0,1-12.569-21.113c-8.99-24.281-5.039-50.355-2.464-74.235,1.233-11.673,2.931-23.818,3.052-36.127.111-12.287-1.441-24.5-6.771-36.62A135.932,135.932,0,0,0,91.481,63.491a137.257,137.257,0,0,0-8.866-11.3c-3.2-3.565-6.6-7.028-10.18-10.353A142.666,142.666,0,0,0,47.227,23.187a105.286,105.286,0,0,0-12.52-6.222c-2.483-1.07-19.653-6.437-7.8-3.821C24.065,12.575-6.039,6.1-5.68,4.192c.478-2.447,32.635,5.042,33.44,5.163,5.09,1.126,10.159,2.28,15.184,3.492s9.932,2.778,14.825,4.255C67.531,20.137,77.061,23.47,86.2,27.28A131.606,131.606,0,0,1,99.5,33.7q6.457,3.492,12.54,7.413a131.684,131.684,0,0,1,22.4,17.9c12.842,13.333,22.293,27.256,28.309,41.406a99.079,99.079,0,0,1,7.633,43.548c-1.46,25.952-8.534,50.654-9.619,76.52-.48,11.568-.041,23.848,3.781,35.739a63.547,63.547,0,0,0,7.579,15.942,64.934,64.934,0,0,0,8.064,9.628c3.379,3.347,8.685,7.243,10.14,8.58.718.7.448.8-1.565.01-1.007-.4-2.448-1.016-4.419-1.9l-3.365-1.531-4.313-1.781c2.823,1.051,9.927,3.754,16.6,6.791s12.893,6.421,13.746,9.129c.769,2.479-16.936-5.518-18.526-6.265Z" fill="rgba(27,175,193,0.2)"/>
      </g>
    </g>
    <g id="Group_8" data-name="Group 8" opacity="0.4">
      <path id="Path_19" data-name="Path 19" d="M515.851,271l-2.964-3.083c-.329-.334-3.867-3.824-2.607-2.617,1.474,1.41-3.395-2.91-.143-.15q3.748,3.387,7.77,6.472,11,8.916,5.228,4.384c-6.693-5.217-13.316-10.684-19.716-16.262-1.228-1.261-10.587-7.89-11.4-10.159-.834-2.22,1.49-.442,3.589.822,2.815,1.714,5.617,3.511,8.3,5.473q3.951,3.043,7.886,6.079c8.677,6.747,17.378,13.727,25.777,21a288.774,288.774,0,0,1,23.241,23.611c1.711,1.954,3.8,3.692,1.508,3.328-2.356-.375-10.884-8.127-12.2-9.21-2.829-2.334-5.728-4.727-8.659-7.147s-5.832-4.939-8.844-7.316A178.715,178.715,0,0,1,515.851,271Z" fill="rgba(27,175,193,0.2)"/>
      <g id="Group_7" data-name="Group 7" opacity="0.2">
        <path id="Path_20" data-name="Path 20" d="M515.851,271l-2.964-3.083c-.329-.334-3.867-3.824-2.607-2.617,1.474,1.41-3.395-2.91-.143-.15q3.748,3.387,7.77,6.472,11,8.916,5.228,4.384c-6.693-5.217-13.316-10.684-19.716-16.262-1.228-1.261-10.587-7.89-11.4-10.159-.834-2.22,1.49-.442,3.589.822,2.815,1.714,5.617,3.511,8.3,5.473q3.951,3.043,7.886,6.079c8.677,6.747,17.378,13.727,25.777,21a288.774,288.774,0,0,1,23.241,23.611c1.711,1.954,3.8,3.692,1.508,3.328-2.356-.375-10.884-8.127-12.2-9.21-2.829-2.334-5.728-4.727-8.659-7.147s-5.832-4.939-8.844-7.316A178.715,178.715,0,0,1,515.851,271Z" fill="rgba(27,175,193,0.2)"/>
      </g>
    </g>
  </g>
</svg>
