<svg xmlns="http://www.w3.org/2000/svg" width="17.481" height="17.464" viewBox="0 0 17.481 17.464">
  <path id="icon-home" d="M17.48,16.416a1.051,1.051,0,0,1-1.049,1.049H12.857a1.051,1.051,0,0,1-1.049-1.049V12.051a1.437,1.437,0,0,0-1.433-1.433H7.1a1.437,1.437,0,0,0-1.433,1.433v4.365a1.051,1.051,0,0,1-1.049,1.049H1.049A1.051,1.051,0,0,1,0,16.416V8.738a2.429,2.429,0,0,1,.738-1.78L6.96.735a2.522,2.522,0,0,1,3.56,0l6.222,6.223a2.432,2.432,0,0,1,.738,1.78Z" fill="#1bafc1" fill-rule="evenodd"/>
</svg>
