<svg xmlns="http://www.w3.org/2000/svg" width="27.628" height="31.877" viewBox="0 0 27.628 31.877">
  <path id="icon-tiktok" d="M27.373,7.88a7.257,7.257,0,0,1-.628-.365,8.819,8.819,0,0,1-1.612-1.369A7.6,7.6,0,0,1,23.317,2.4h.007a4.619,4.619,0,0,1-.072-1.335H17.777V22.232c0,.284,0,.565-.012.843,0,.035,0,.066-.005.1a.23.23,0,0,1,0,.047v.012a4.648,4.648,0,0,1-2.339,3.689,4.569,4.569,0,0,1-2.265.6,4.649,4.649,0,0,1,0-9.3,4.574,4.574,0,0,1,1.422.225l.007-5.574A10.169,10.169,0,0,0,6.745,15.17,10.744,10.744,0,0,0,4.4,18.061a10.017,10.017,0,0,0-1.209,4.6,10.853,10.853,0,0,0,.588,3.635v.013a10.7,10.7,0,0,0,1.486,2.711,11.125,11.125,0,0,0,2.371,2.237v-.013l.013.013a10.244,10.244,0,0,0,5.589,1.683,9.894,9.894,0,0,0,4.148-.917,10.41,10.41,0,0,0,3.368-2.531,10.523,10.523,0,0,0,1.836-3.05,11.428,11.428,0,0,0,.661-3.488V11.72c.066.04.951.625.951.625a12.662,12.662,0,0,0,3.263,1.349,18.79,18.79,0,0,0,3.348.458V8.717A7.1,7.1,0,0,1,27.373,7.88Z" transform="translate(-3.186 -1.063)"/>
</svg>
