<svg xmlns="http://www.w3.org/2000/svg" width="461.32" height="297.249" viewBox="0 0 461.32 297.249">
  <g id="icon-dna" transform="translate(99.781 35.747)">
    <path id="Path_1" data-name="Path 1" d="M-1.1,175.985c5.225,20.512,8.416,42.1,15.834,62.026,1.056-.793,2.08-1.6,3.091-2.425-2.168-20.066-8.7-39.649-13.667-59.012q-4.274-16.539-8.747-33.023c-2.77-10.28-4.437-21.7-9.538-31.181-.543-1.014-2.74-.474-2.682.7.489,10.118,4.554,20.137,7.142,29.843Q-5.289,159.424-1.1,175.985Z" fill="rgba(255,255,255,0.4)"/>
    <path id="Path_2" data-name="Path 2" d="M47.27,196.176a55.715,55.715,0,0,0,2.629-9.368c-2.244-7.791-4.842-15.492-7.083-23.192-4.737-16.273-8.188-33.554-15.112-49.106-.853-1.92-4.123-.888-3.79,1.145,2.637,16.151,8.912,31.938,13.635,47.566C40.832,174.084,43.5,185.355,47.27,196.176Z" fill="rgba(255,255,255,0.4)"/>
    <g id="Group_1" data-name="Group 1" opacity="0.4">
      <path id="Path_3" data-name="Path 3" d="M352.519,58.928a68.119,68.119,0,0,1-14.754,8.241c-2.7,1.123-5.482,2.126-8.32,3.013s-5.831,1.516-8.774,2.114a138.619,138.619,0,0,1-33.478,2.449,205.468,205.468,0,0,1-33.355-5.189q-3.987-.936-7.9-1.975c-2.638-.733-5.269-1.52-7.871-2.313-5.208-1.592-10.336-3.263-15.408-4.952-8.152-2.731-16.589-5.895-25.3-9a232.992,232.992,0,0,0-26.8-8.382,131.32,131.32,0,0,0-13.651-2.449,89.552,89.552,0,0,0-13.936-.9,72.62,72.62,0,0,0-14.009,1.574,84.039,84.039,0,0,0-14.348,4.184c-4.345,1.741-8.708,3.619-12.991,5.664-4.3,2.012-8.636,3.93-12.739,6.192-5.233,2.836-6.443,4.4.8,1.813a39.014,39.014,0,0,1,12.775-2.12,60.932,60.932,0,0,1,13.082.993c8.7,1.51,17.277,4.525,24.26,6.931,20.3,6.738,39.854,16.345,60.185,23.443,5.109,1.823,10.323,3.6,15.661,5.253s10.835,3.224,16.333,4.336a158.617,158.617,0,0,0,35.077,3.625,113.682,113.682,0,0,0,34.816-6.945A129.941,129.941,0,0,0,318.583,86.6a166.482,166.482,0,0,0,16.68-10.544c7.792-5.862,19.456-13.377,25.128-21.121,2.249-3.25.867-2.637-1.344-1-2.242,1.6-5.41,4.13-6.53,4.989Z" fill="rgba(255,255,255,0.4)"/>
    </g>
    <path id="Path_4" data-name="Path 4" d="M321.591,79.217c-8.011-18.738-18.585-36.032-28.36-53.667l-15.279-27.2c-4.588-8.153-7.829-19.309-15.762-24.561a.938.938,0,0,0-1.315.851c.666,8.293,6.687,14.794,10.527,21.607L287.41,25.118c10.246,18.633,19.5,38.173,31.061,56C319.267,82.344,322.185,80.613,321.591,79.217Z" fill="rgba(255,255,255,0.4)"/>
    <path id="Path_5" data-name="Path 5" d="M281.583,87.075c-5.886-13.321-15.077-25.043-22.435-37.5C251.136,36.055,243.5,22.32,235.964,8.532c-1.167-2.126-4.918.494-3.8,2.616q10.556,20.034,22.057,39.542c7.557,12.763,14.5,26.955,24.694,37.864.785.84,3.233-.206,2.672-1.479Z" fill="rgba(255,255,255,0.4)"/>
    <path id="Path_6" data-name="Path 6" d="M203.87,117.39c-4.144-11.923-11.273-22.584-17.492-33.405-5.414-9.451-9.975-21.509-18.755-28.463a.679.679,0,0,0-1.032.583c1.918,10.977,10.2,20.722,15.662,30.213,6.215,10.841,11.521,22.475,19.284,32.415.812,1.041,2.754-.121,2.333-1.338Z" fill="rgba(255,255,255,0.4)"/>
    <path id="Path_7" data-name="Path 7" d="M182.381,153.4c-6.157-19.512-15.669-37.861-23.87-56.47L146.057,68.949c-3.632-8.13-6.46-17.179-11.985-24.215-.645-.824-2.265.153-2.09,1.11,1.618,8.935,6.5,17.059,10.091,25.218L154.315,99.1c8.106,18.6,14.962,38.084,24.78,55.881.841,1.522,3.784,0,3.286-1.584Z" fill="rgba(255,255,255,0.4)"/>
    <path id="Path_8" data-name="Path 8" d="M257.057-23.861c-4.54,3.689-9.144,7.127-13.411,10.824-4.324,3.625-8.3,7.533-12.225,11.364A103.933,103.933,0,0,0,220.565,10.62a114.9,114.9,0,0,0-8.9,14.246,131.536,131.536,0,0,0-10.126,26.248C199,60.036,196.977,68.85,195.2,77.736q-1.3,6.714-2.588,13.385c-.843,4.486-1.687,9-2.688,13.384a240.37,240.37,0,0,1-7.315,26.724c-1.336,3.861-2.828,7.752-4.592,11.626a86.49,86.49,0,0,1-6.393,11.16A66.352,66.352,0,0,1,162.5,164.9a61.052,61.052,0,0,1-8.562,6.249c-.643.4-.456.385,1.132-.327,1.57-.75,4.555-2.174,9.533-4.553l-11.308,5.467c-5.114,2.391-9.921,4.865-9.594,5.607.316.719,5.754-1.263,11.178-3.461,5.366-2.323,10.663-4.974,10.926-5.083,10.636-5.113,20.54-10.042,28.788-16.6a86.254,86.254,0,0,0,11.425-10.435,69.851,69.851,0,0,0,4.836-5.963,63.375,63.375,0,0,0,4.064-6.777c8.726-16.785,11.7-33.843,14.117-50.647,1.394-9.23,2.563-18.417,4.024-27.53a260.461,260.461,0,0,1,5.34-27.707,139.638,139.638,0,0,1,4.2-13.519,103.009,103.009,0,0,1,5.625-13.469,86.642,86.642,0,0,1,7.911-12.7c1.583-1.977,5.138-5.79,6.9-7.766,1.755-1.992,1.664-2.233-4.243,2.661,1.351-1.127,16.066-12.757,15.014-14.009-1.015-1.205-16.374,11.486-16.75,11.807Z" fill="rgba(255,255,255,0.4)"/>
    <g id="Group_2" data-name="Group 2" opacity="0.2">
      <path id="Path_9" data-name="Path 9" d="M257.057-23.861c-4.54,3.689-9.144,7.127-13.411,10.824-4.324,3.625-8.3,7.533-12.225,11.364A103.933,103.933,0,0,0,220.565,10.62a114.9,114.9,0,0,0-8.9,14.246,131.536,131.536,0,0,0-10.126,26.248C199,60.036,196.977,68.85,195.2,77.736q-1.3,6.714-2.588,13.385c-.843,4.486-1.687,9-2.688,13.384a240.37,240.37,0,0,1-7.315,26.724c-1.336,3.861-2.828,7.752-4.592,11.626a86.49,86.49,0,0,1-6.393,11.16A66.352,66.352,0,0,1,162.5,164.9a61.052,61.052,0,0,1-8.562,6.249c-.643.4-.456.385,1.132-.327,1.57-.75,4.555-2.174,9.533-4.553l-11.308,5.467c-5.114,2.391-9.921,4.865-9.594,5.607.316.719,5.754-1.263,11.178-3.461,5.366-2.323,10.663-4.974,10.926-5.083,10.636-5.113,20.54-10.042,28.788-16.6a86.254,86.254,0,0,0,11.425-10.435,69.851,69.851,0,0,0,4.836-5.963,63.375,63.375,0,0,0,4.064-6.777c8.726-16.785,11.7-33.843,14.117-50.647,1.394-9.23,2.563-18.417,4.024-27.53a260.461,260.461,0,0,1,5.34-27.707,139.638,139.638,0,0,1,4.2-13.519,103.009,103.009,0,0,1,5.625-13.469,86.642,86.642,0,0,1,7.911-12.7c1.583-1.977,5.138-5.79,6.9-7.766,1.755-1.992,1.664-2.233-4.243,2.661,1.351-1.127,16.066-12.757,15.014-14.009-1.015-1.205-16.374,11.486-16.75,11.807Z" fill="rgba(255,255,255,0.4)"/>
    </g>
    <path id="Path_10" data-name="Path 10" d="M-23.835,112.693A82.133,82.133,0,0,1-9.954,114.31a106.2,106.2,0,0,1,13.1,3.652,103.676,103.676,0,0,1,12.3,5.02,147.5,147.5,0,0,1,22.633,13.8c3.675,2.609,7.226,5.331,10.661,8.1-1.338-12.159-3.005-25.05-1.459-37.7-.278-.091-.549-.194-.828-.284a108.649,108.649,0,0,0-12.2-3.012q-3.1-.575-6.248-.959c-2.105-.279-4.256-.583-6.4-.767a100.447,100.447,0,0,0-26.529,1.164,188.733,188.733,0,0,0-27.049,6.491c-1.852.488-14.192,4.224-6.69,3.421q3.842-.411,7.561-.474c2.473-.07,4.881-.158,7.267-.068Z" fill="rgba(255,255,255,0.4)"/>
    <path id="Path_11" data-name="Path 11" d="M179.816,159.4a59.374,59.374,0,0,1-27.89,4.912,68.607,68.607,0,0,1-24.407-7.5,132.732,132.732,0,0,1-20.632-13.455c-6.219-4.88-11.888-9.774-17.108-13.822,1.533,9.3,3.118,18.6,3.656,28.129a70.481,70.481,0,0,1-1.642,19.258c1.143.527,2.273,1.067,3.461,1.547a61.173,61.173,0,0,0,26.373,4.068c9.2-.674,18.8-3.259,28.827-7.055,5.219-1.9,10.316-4.227,15.39-6.606s10.059-4.94,14.86-7.706c6.022-3.479,7.481-5.345-.884-1.773Z" fill="rgba(255,255,255,0.4)"/>
    <g id="Group_3" data-name="Group 3" opacity="0.4">
      <path id="Path_12" data-name="Path 12" d="M-3.773,250.681a153.417,153.417,0,0,1-24.712,2.558c-8.361.2-16.728-.356-24.5-.573a81.229,81.229,0,0,0-14.71,1.257c-5.066.68-10.132,1.619-14.753,2.332-4,.616-10.852.863-14.2,2.589-.335.173-4.99,1.2-2.285,1.4q10.336.778,20.674,1.087c6.895.19,13.822.324,20.7-.165,13.78-.809,27.738-2.06,41.736-5.069,2.561-.509,9.166-1.45,15.468-2.725a56.034,56.034,0,0,0,8.63-2.317c2.427-.876,4.23-1.8,4.875-2.73.6-.865-3.251-.3-7.426.517-4.16.878-8.753,1.644-9.491,1.84Z" fill="rgba(255,255,255,0.4)"/>
    </g>
    <path id="Path_13" data-name="Path 13" d="M131.108,146.167q-5.574-15.324-11.4-30.541c-6.9-18.139-12.893-37.313-21.677-54.713a39.891,39.891,0,0,0-3.34,4.288c-.06.089-.107.183-.166.272,5.769,17.69,13.977,34.848,20.6,52.148,6.912,17.974,11.006,39.355,22.062,55.342.425.609,1.821-.085,1.769-.767-.729-9.185-4.789-17.6-7.843-26.026Z" fill="rgba(255,255,255,0.4)"/>
    <g id="Group_5" data-name="Group 5" opacity="0.4">
      <path id="Path_14" data-name="Path 14" d="M106.5,48.857c-2.819,1.265-5.6,2.717-8.5,3.942-2.881,1.265-5.751,2.583-8.575,3.973A133.28,133.28,0,0,0,73.3,66.083,63.924,63.924,0,0,0,59.75,77.557a49.72,49.72,0,0,0-9.07,15.228C44.193,110.3,47.044,129.1,48.9,146.328c.89,8.419,2.115,17.179,2.2,26.057s-1.04,17.675-4.887,26.413A98.034,98.034,0,0,1,36.5,215.709a99.019,99.019,0,0,1-6.4,8.153c-2.31,2.571-4.766,5.069-7.346,7.467a102.985,102.985,0,0,1-18.191,13.45,76.006,76.006,0,0,1-9.035,4.487c-1.792.772-14.183,4.643-5.629,2.756-2.051.41-23.775,5.079-23.516,6.457.345,1.764,23.551-3.637,24.131-3.724,3.673-.813,7.331-1.644,10.957-2.519s7.167-2,10.7-3.069c7.044-2.188,13.922-4.592,20.518-7.341a94.782,94.782,0,0,0,9.6-4.631q4.66-2.519,9.049-5.347A95.031,95.031,0,0,0,67.5,218.939c9.267-9.617,16.087-19.659,20.429-29.865a71.433,71.433,0,0,0,5.508-31.409c-1.054-18.719-6.158-36.535-6.941-55.191-.347-8.344-.029-17.2,2.729-25.778a45.812,45.812,0,0,1,5.469-11.5,46.829,46.829,0,0,1,5.82-6.944c2.438-2.414,6.267-5.224,7.317-6.188.518-.5.323-.579-1.13-.008-.726.286-1.766.733-3.188,1.372l-2.429,1.1-3.112,1.285c2.037-.758,7.163-2.707,11.98-4.9s9.3-4.632,9.919-6.585c.555-1.788-12.221,3.98-13.369,4.519Z" fill="rgba(255,255,255,0.4)"/>
      <g id="Group_4" data-name="Group 4" opacity="0.2">
        <path id="Path_15" data-name="Path 15" d="M106.5,48.857c-2.819,1.265-5.6,2.717-8.5,3.942-2.881,1.265-5.751,2.583-8.575,3.973A133.28,133.28,0,0,0,73.3,66.083,63.924,63.924,0,0,0,59.75,77.557a49.72,49.72,0,0,0-9.07,15.228C44.193,110.3,47.044,129.1,48.9,146.328c.89,8.419,2.115,17.179,2.2,26.057s-1.04,17.675-4.887,26.413A98.034,98.034,0,0,1,36.5,215.709a99.019,99.019,0,0,1-6.4,8.153c-2.31,2.571-4.766,5.069-7.346,7.467a102.985,102.985,0,0,1-18.191,13.45,76.006,76.006,0,0,1-9.035,4.487c-1.792.772-14.183,4.643-5.629,2.756-2.051.41-23.775,5.079-23.516,6.457.345,1.764,23.551-3.637,24.131-3.724,3.673-.813,7.331-1.644,10.957-2.519s7.167-2,10.7-3.069c7.044-2.188,13.922-4.592,20.518-7.341a94.782,94.782,0,0,0,9.6-4.631q4.66-2.519,9.049-5.347A95.031,95.031,0,0,0,67.5,218.939c9.267-9.617,16.087-19.659,20.429-29.865a71.433,71.433,0,0,0,5.508-31.409c-1.054-18.719-6.158-36.535-6.941-55.191-.347-8.344-.029-17.2,2.729-25.778a45.812,45.812,0,0,1,5.469-11.5,46.829,46.829,0,0,1,5.82-6.944c2.438-2.414,6.267-5.224,7.317-6.188.518-.5.323-.579-1.13-.008-.726.286-1.766.733-3.188,1.372l-2.429,1.1-3.112,1.285c2.037-.758,7.163-2.707,11.98-4.9s9.3-4.632,9.919-6.585c.555-1.788-12.221,3.98-13.369,4.519Z" fill="rgba(255,255,255,0.4)"/>
      </g>
    </g>
  </g>
</svg>
