<svg xmlns="http://www.w3.org/2000/svg" width="17.438" height="18.406" viewBox="0 0 17.438 18.406">
  <g id="icon-download" transform="translate(-6.781 -5.813)">
    <path id="Path_1" data-name="Path 1" d="M16.469,16.068V6.781a.969.969,0,0,0-1.938,0v9.287l-3.19-3.191a.969.969,0,0,0-1.371,1.371L15.5,19.776l5.529-5.528a.969.969,0,0,0-1.371-1.371Z"/>
    <path id="Path_2" data-name="Path 2" d="M7.75,18.406a.969.969,0,0,1,.969.969v1.55a1.355,1.355,0,0,0,1.356,1.356h10.85a1.356,1.356,0,0,0,1.356-1.356v-1.55a.969.969,0,1,1,1.938,0v1.55a3.294,3.294,0,0,1-3.294,3.294H10.075a3.294,3.294,0,0,1-3.294-3.294v-1.55A.969.969,0,0,1,7.75,18.406Z"/>
  </g>
</svg>
