<svg xmlns="http://www.w3.org/2000/svg" width="29.956" height="30.955" viewBox="0 0 29.956 30.955">
  <g id="icon-insta" transform="translate(-0.037 -0.037)">
    <path id="Path_3" data-name="Path 3" d="M15.015,2.822c4,0,4.473.015,6.054.09a8.059,8.059,0,0,1,2.783.534,4.651,4.651,0,0,1,1.719,1.159,4.836,4.836,0,0,1,1.122,1.777,8.776,8.776,0,0,1,.517,2.876c.073,1.634.087,2.123.087,6.256s-.015,4.622-.087,6.256a8.821,8.821,0,0,1-.517,2.876,5.047,5.047,0,0,1-2.841,2.936,8.019,8.019,0,0,1-2.783.535c-1.581.075-2.054.09-6.054.09s-4.473-.015-6.054-.09a8.06,8.06,0,0,1-2.783-.535,4.65,4.65,0,0,1-1.719-1.159,4.835,4.835,0,0,1-1.122-1.777A8.772,8.772,0,0,1,2.82,21.77c-.073-1.634-.087-2.123-.087-6.256s.015-4.622.087-6.256a8.818,8.818,0,0,1,.517-2.876A4.835,4.835,0,0,1,4.459,4.607,4.65,4.65,0,0,1,6.178,3.447a8.018,8.018,0,0,1,2.783-.534C10.542,2.838,11.016,2.822,15.015,2.822Zm0-2.785c-4.072,0-4.582.015-6.178.09A10.646,10.646,0,0,0,5.2.85,7.249,7.249,0,0,0,2.55,2.634,7.539,7.539,0,0,0,.824,5.374a11.649,11.649,0,0,0-.7,3.756C.052,10.78.037,11.306.037,15.514S.052,20.25.125,21.9a11.648,11.648,0,0,0,.7,3.756,7.67,7.67,0,0,0,1.727,2.74A7.249,7.249,0,0,0,5.2,30.179a10.647,10.647,0,0,0,3.635.723c1.6.075,2.105.09,6.178.09s4.582-.015,6.178-.09a10.648,10.648,0,0,0,3.635-.723,7.778,7.778,0,0,0,4.378-4.524,11.651,11.651,0,0,0,.7-3.756c.073-1.649.087-2.176.087-6.384s-.015-4.735-.087-6.384a11.651,11.651,0,0,0-.7-3.756,7.67,7.67,0,0,0-1.727-2.74A7.249,7.249,0,0,0,24.828.85,10.647,10.647,0,0,0,21.193.127C19.6.052,19.088.037,15.015.037Z"/>
    <path id="Path_4" data-name="Path 4" d="M15.015,7.564a7.826,7.826,0,0,0-7.693,7.949,7.826,7.826,0,0,0,7.693,7.95,7.826,7.826,0,0,0,7.693-7.95A7.827,7.827,0,0,0,15.015,7.564Zm0,13.114a5.08,5.08,0,0,1-5-5.157,5.08,5.08,0,0,1,4.99-5.164,5.08,5.08,0,0,1,5,5.157A5.071,5.071,0,0,1,15.015,20.678Z"/>
    <path id="Path_5" data-name="Path 5" d="M23.014,9.109a1.86,1.86,0,1,0-1.8-1.859A1.83,1.83,0,0,0,23.014,9.109Z"/>
  </g>
</svg>
