<svg xmlns="http://www.w3.org/2000/svg" width="30.997" height="31" viewBox="0 0 30.997 31">
  <path id="icon-linkedin" d="M7.557,29.953A1.05,1.05,0,0,1,6.5,31H2.018A1.05,1.05,0,0,1,.965,29.953V11.274a1.05,1.05,0,0,1,1.054-1.047H6.5a1.05,1.05,0,0,1,1.054,1.047ZM4.261,8.466A4.233,4.233,0,1,1,8.522,4.233,4.247,4.247,0,0,1,4.261,8.466ZM31,30.038a.966.966,0,0,1-.969.962H25.215a.966.966,0,0,1-.969-.962V21.276c0-1.307.386-5.727-3.438-5.727-2.966,0-3.568,3.026-3.689,4.384V30.038a.966.966,0,0,1-.969.962H11.5a.966.966,0,0,1-.969-.962V11.19a.966.966,0,0,1,.969-.963h4.655a.966.966,0,0,1,.969.963v1.63c1.1-1.64,2.734-2.906,6.215-2.906C31.041,9.914,31,17.067,31,21Z"/>
</svg>
