<svg xmlns="http://www.w3.org/2000/svg" width="42.68" height="34.21" viewBox="0 0 42.68 34.21">
  <path id="icon-quote-marks" d="M19.03,3.96,11.22,18.48,6.71,19.69a10.292,10.292,0,0,1,1.76-2.42,3.422,3.422,0,0,1,2.31-.99,7.009,7.009,0,0,1,5.17,2.42,8.209,8.209,0,0,1,2.42,6.05,9.574,9.574,0,0,1-2.64,6.71,8.644,8.644,0,0,1-6.49,2.75,8.876,8.876,0,0,1-6.49-2.75A9.13,9.13,0,0,1,0,24.75a12.325,12.325,0,0,1,.66-3.63,31.627,31.627,0,0,1,2.42-5.5L11.55,0Zm23.65,0L34.87,18.48l-4.51,1.21a10.291,10.291,0,0,1,1.76-2.42,3.166,3.166,0,0,1,2.31-.99A7.009,7.009,0,0,1,39.6,18.7a8.209,8.209,0,0,1,2.42,6.05,9.369,9.369,0,0,1-2.75,6.71,8.644,8.644,0,0,1-6.49,2.75,8.754,8.754,0,0,1-6.38-2.75,9.13,9.13,0,0,1-2.75-6.71,12.325,12.325,0,0,1,.66-3.63,31.63,31.63,0,0,1,2.42-5.5L35.2,0Z" transform="translate(0)"/>
</svg>
